<mxfile host="app.diagrams.net" agent="Mozilla/5.0 (Macintosh; Intel Mac OS X 10_15_7) AppleWebKit/537.36 (KHTML, like Gecko) Chrome/131.0.0.0 Safari/537.36" version="26.0.8">
  <diagram name="Page-1" id="3BJxtSNq9dqW92c-Yoj6">
    <mxGraphModel dx="1422" dy="762" grid="1" gridSize="10" guides="1" tooltips="1" connect="1" arrows="1" fold="1" page="1" pageScale="1" pageWidth="850" pageHeight="1100" math="0" shadow="0">
      <root>
        <mxCell id="0" />
        <mxCell id="1" parent="0" />
        <mxCell id="KRvKpdq1en5eKtD0C2yt-1" value="" style="strokeWidth=1;shadow=0;dashed=0;align=center;html=1;shape=mxgraph.mockup.containers.browserWindow;rSize=0;strokeColor=#666666;strokeColor2=#008cff;strokeColor3=#c4c4c4;mainText=,;recursiveResize=0;" vertex="1" parent="1">
          <mxGeometry x="50" y="80" width="710" height="490" as="geometry" />
        </mxCell>
        <mxCell id="KRvKpdq1en5eKtD0C2yt-2" value="Disaster Zones&lt;div&gt;&lt;br&gt;&lt;/div&gt;" style="strokeWidth=1;shadow=0;dashed=0;align=center;html=1;shape=mxgraph.mockup.containers.anchor;fontSize=17;fontColor=#666666;align=left;whiteSpace=wrap;" vertex="1" parent="KRvKpdq1en5eKtD0C2yt-1">
          <mxGeometry x="60" y="12" width="110" height="26" as="geometry" />
        </mxCell>
        <mxCell id="KRvKpdq1en5eKtD0C2yt-3" value="https://www.dissaster-service.com/map" style="strokeWidth=1;shadow=0;dashed=0;align=center;html=1;shape=mxgraph.mockup.containers.anchor;rSize=0;fontSize=17;fontColor=#666666;align=left;" vertex="1" parent="KRvKpdq1en5eKtD0C2yt-1">
          <mxGeometry x="130" y="60" width="250" height="26" as="geometry" />
        </mxCell>
        <mxCell id="KRvKpdq1en5eKtD0C2yt-4" value="" style="verticalLabelPosition=bottom;shadow=0;dashed=0;align=center;html=1;verticalAlign=top;strokeWidth=1;shape=mxgraph.mockup.misc.map;" vertex="1" parent="KRvKpdq1en5eKtD0C2yt-1">
          <mxGeometry x="10" y="110" width="660" height="330" as="geometry" />
        </mxCell>
        <mxCell id="KRvKpdq1en5eKtD0C2yt-5" value="" style="verticalLabelPosition=bottom;shadow=0;dashed=0;align=center;html=1;verticalAlign=top;strokeWidth=1;shape=mxgraph.mockup.navigation.mapNavigator;fillColor2=#99ddff;strokeColor2=none;strokeColor3=#ffffff;strokeColor=#999999;" vertex="1" parent="KRvKpdq1en5eKtD0C2yt-1">
          <mxGeometry x="20" y="120" width="40" height="60" as="geometry" />
        </mxCell>
        <mxCell id="KRvKpdq1en5eKtD0C2yt-6" value="" style="shape=parallelogram;perimeter=parallelogramPerimeter;whiteSpace=wrap;html=1;fixedSize=1;fillColor=#d80073;fontColor=#ffffff;strokeColor=#A50040;opacity=50;" vertex="1" parent="KRvKpdq1en5eKtD0C2yt-1">
          <mxGeometry x="100" y="170" width="300" height="140" as="geometry" />
        </mxCell>
        <mxCell id="KRvKpdq1en5eKtD0C2yt-7" value="" style="swimlane;strokeColor=#999999;swimlaneFillColor=#FFFFFF;fillColor=#ffffff;fontColor=#666666;fontStyle=0;childLayout=stackLayout;horizontal=1;startSize=0;horizontalStack=0;resizeParent=1;resizeParentMax=0;resizeLast=0;collapsible=0;marginBottom=0;whiteSpace=wrap;html=1;" vertex="1" parent="KRvKpdq1en5eKtD0C2yt-1">
          <mxGeometry x="510" y="120" width="150" height="120" as="geometry" />
        </mxCell>
        <mxCell id="KRvKpdq1en5eKtD0C2yt-8" value="Earthquakes" style="text;strokeColor=none;align=left;verticalAlign=middle;spacingLeft=27;spacingRight=10;overflow=hidden;points=[[0,0.5],[1,0.5]];portConstraint=eastwest;rotatable=0;whiteSpace=wrap;html=1;fillColor=none;fontColor=inherit;fontSize=17;" vertex="1" parent="KRvKpdq1en5eKtD0C2yt-7">
          <mxGeometry width="150" height="30" as="geometry" />
        </mxCell>
        <mxCell id="KRvKpdq1en5eKtD0C2yt-9" value="" style="resizable=0;fillColor=#EEEEEE;strokeColor=#999999;gradientColor=#cccccc;html=1;" vertex="1" parent="KRvKpdq1en5eKtD0C2yt-8">
          <mxGeometry y="0.5" width="15" height="15" relative="1" as="geometry">
            <mxPoint x="8" y="-7.5" as="offset" />
          </mxGeometry>
        </mxCell>
        <mxCell id="KRvKpdq1en5eKtD0C2yt-10" value="Tornadoes" style="text;strokeColor=none;align=left;verticalAlign=middle;spacingLeft=27;spacingRight=10;overflow=hidden;points=[[0,0.5],[1,0.5]];portConstraint=eastwest;rotatable=0;whiteSpace=wrap;html=1;rSize=5;fillColor=none;fontColor=inherit;fontSize=17;" vertex="1" parent="KRvKpdq1en5eKtD0C2yt-7">
          <mxGeometry y="30" width="150" height="30" as="geometry" />
        </mxCell>
        <mxCell id="KRvKpdq1en5eKtD0C2yt-11" value="" style="resizable=0;fillColor=#EEEEEE;strokeColor=#999999;gradientColor=#cccccc;html=1;" vertex="1" parent="KRvKpdq1en5eKtD0C2yt-10">
          <mxGeometry y="0.5" width="15" height="15" relative="1" as="geometry">
            <mxPoint x="8" y="-7.5" as="offset" />
          </mxGeometry>
        </mxCell>
        <mxCell id="KRvKpdq1en5eKtD0C2yt-12" value="Fires" style="text;strokeColor=none;align=left;verticalAlign=middle;spacingLeft=27;spacingRight=10;overflow=hidden;points=[[0,0.5],[1,0.5]];portConstraint=eastwest;rotatable=0;whiteSpace=wrap;html=1;rSize=5;fillColor=none;fontColor=#008CFF;fontSize=17;" vertex="1" parent="KRvKpdq1en5eKtD0C2yt-7">
          <mxGeometry y="60" width="150" height="30" as="geometry" />
        </mxCell>
        <mxCell id="KRvKpdq1en5eKtD0C2yt-13" value="" style="shape=mxgraph.mockup.forms.checkbox;resizable=0;fillColor=#AAAAAA;gradientColor=#666666;strokeColor=#444444;html=1;" vertex="1" parent="KRvKpdq1en5eKtD0C2yt-12">
          <mxGeometry y="0.5" width="15" height="15" relative="1" as="geometry">
            <mxPoint x="8" y="-7.5" as="offset" />
          </mxGeometry>
        </mxCell>
        <mxCell id="KRvKpdq1en5eKtD0C2yt-14" value="Eruptions" style="text;strokeColor=none;align=left;verticalAlign=middle;spacingLeft=27;spacingRight=10;overflow=hidden;points=[[0,0.5],[1,0.5]];portConstraint=eastwest;rotatable=0;whiteSpace=wrap;html=1;fillColor=none;fontColor=inherit;fontSize=17;" vertex="1" parent="KRvKpdq1en5eKtD0C2yt-7">
          <mxGeometry y="90" width="150" height="30" as="geometry" />
        </mxCell>
        <mxCell id="KRvKpdq1en5eKtD0C2yt-15" value="" style="resizable=0;fillColor=#EEEEEE;strokeColor=#999999;gradientColor=#cccccc;html=1;" vertex="1" parent="KRvKpdq1en5eKtD0C2yt-14">
          <mxGeometry y="0.5" width="15" height="15" relative="1" as="geometry">
            <mxPoint x="8" y="-7.5" as="offset" />
          </mxGeometry>
        </mxCell>
        <mxCell id="KRvKpdq1en5eKtD0C2yt-16" value="" style="shape=parallelogram;perimeter=parallelogramPerimeter;whiteSpace=wrap;html=1;fixedSize=1;fillColor=#6a00ff;fontColor=#ffffff;strokeColor=#3700CC;opacity=50;" vertex="1" parent="KRvKpdq1en5eKtD0C2yt-1">
          <mxGeometry x="490" y="320" width="130" height="60" as="geometry" />
        </mxCell>
        <mxCell id="KRvKpdq1en5eKtD0C2yt-17" value="" style="strokeWidth=1;shadow=0;dashed=0;align=center;html=1;shape=mxgraph.mockup.containers.browserWindow;rSize=0;strokeColor=#666666;strokeColor2=#008cff;strokeColor3=#c4c4c4;mainText=,;recursiveResize=0;" vertex="1" parent="KRvKpdq1en5eKtD0C2yt-1">
          <mxGeometry x="10" y="520" width="680" height="460" as="geometry" />
        </mxCell>
        <mxCell id="KRvKpdq1en5eKtD0C2yt-18" value="Disaster Zones&lt;div&gt;&lt;br&gt;&lt;/div&gt;" style="strokeWidth=1;shadow=0;dashed=0;align=center;html=1;shape=mxgraph.mockup.containers.anchor;fontSize=17;fontColor=#666666;align=left;whiteSpace=wrap;" vertex="1" parent="KRvKpdq1en5eKtD0C2yt-17">
          <mxGeometry x="60" y="12" width="110" height="26" as="geometry" />
        </mxCell>
        <mxCell id="KRvKpdq1en5eKtD0C2yt-19" value="https://www.dissaster-service.com/map" style="strokeWidth=1;shadow=0;dashed=0;align=center;html=1;shape=mxgraph.mockup.containers.anchor;rSize=0;fontSize=17;fontColor=#666666;align=left;" vertex="1" parent="KRvKpdq1en5eKtD0C2yt-17">
          <mxGeometry x="130" y="60" width="250" height="26" as="geometry" />
        </mxCell>
        <mxCell id="KRvKpdq1en5eKtD0C2yt-20" value="" style="verticalLabelPosition=bottom;shadow=0;dashed=0;align=center;html=1;verticalAlign=top;strokeWidth=1;shape=mxgraph.mockup.misc.map;" vertex="1" parent="KRvKpdq1en5eKtD0C2yt-17">
          <mxGeometry x="10" y="110" width="660" height="330" as="geometry" />
        </mxCell>
        <mxCell id="KRvKpdq1en5eKtD0C2yt-21" value="" style="verticalLabelPosition=bottom;shadow=0;dashed=0;align=center;html=1;verticalAlign=top;strokeWidth=1;shape=mxgraph.mockup.navigation.mapNavigator;fillColor2=#99ddff;strokeColor2=none;strokeColor3=#ffffff;strokeColor=#999999;" vertex="1" parent="KRvKpdq1en5eKtD0C2yt-17">
          <mxGeometry x="20" y="120" width="40" height="60" as="geometry" />
        </mxCell>
        <mxCell id="KRvKpdq1en5eKtD0C2yt-22" value="" style="shape=parallelogram;perimeter=parallelogramPerimeter;whiteSpace=wrap;html=1;fixedSize=1;fillColor=#d80073;fontColor=#ffffff;strokeColor=#A50040;opacity=50;" vertex="1" parent="KRvKpdq1en5eKtD0C2yt-17">
          <mxGeometry x="100" y="170" width="300" height="140" as="geometry" />
        </mxCell>
        <mxCell id="KRvKpdq1en5eKtD0C2yt-23" value="" style="swimlane;strokeColor=#999999;swimlaneFillColor=#FFFFFF;fillColor=#ffffff;fontColor=#666666;fontStyle=0;childLayout=stackLayout;horizontal=1;startSize=0;horizontalStack=0;resizeParent=1;resizeParentMax=0;resizeLast=0;collapsible=0;marginBottom=0;whiteSpace=wrap;html=1;" vertex="1" parent="KRvKpdq1en5eKtD0C2yt-17">
          <mxGeometry x="510" y="120" width="150" height="120" as="geometry" />
        </mxCell>
        <mxCell id="KRvKpdq1en5eKtD0C2yt-24" value="Earthquakes" style="text;strokeColor=none;align=left;verticalAlign=middle;spacingLeft=27;spacingRight=10;overflow=hidden;points=[[0,0.5],[1,0.5]];portConstraint=eastwest;rotatable=0;whiteSpace=wrap;html=1;fillColor=none;fontColor=inherit;fontSize=17;" vertex="1" parent="KRvKpdq1en5eKtD0C2yt-23">
          <mxGeometry width="150" height="30" as="geometry" />
        </mxCell>
        <mxCell id="KRvKpdq1en5eKtD0C2yt-25" value="" style="resizable=0;fillColor=#EEEEEE;strokeColor=#999999;gradientColor=#cccccc;html=1;" vertex="1" parent="KRvKpdq1en5eKtD0C2yt-24">
          <mxGeometry y="0.5" width="15" height="15" relative="1" as="geometry">
            <mxPoint x="8" y="-7.5" as="offset" />
          </mxGeometry>
        </mxCell>
        <mxCell id="KRvKpdq1en5eKtD0C2yt-26" value="Tornadoes" style="text;strokeColor=none;align=left;verticalAlign=middle;spacingLeft=27;spacingRight=10;overflow=hidden;points=[[0,0.5],[1,0.5]];portConstraint=eastwest;rotatable=0;whiteSpace=wrap;html=1;rSize=5;fillColor=none;fontColor=inherit;fontSize=17;" vertex="1" parent="KRvKpdq1en5eKtD0C2yt-23">
          <mxGeometry y="30" width="150" height="30" as="geometry" />
        </mxCell>
        <mxCell id="KRvKpdq1en5eKtD0C2yt-27" value="" style="resizable=0;fillColor=#EEEEEE;strokeColor=#999999;gradientColor=#cccccc;html=1;" vertex="1" parent="KRvKpdq1en5eKtD0C2yt-26">
          <mxGeometry y="0.5" width="15" height="15" relative="1" as="geometry">
            <mxPoint x="8" y="-7.5" as="offset" />
          </mxGeometry>
        </mxCell>
        <mxCell id="KRvKpdq1en5eKtD0C2yt-28" value="Fires" style="text;strokeColor=none;align=left;verticalAlign=middle;spacingLeft=27;spacingRight=10;overflow=hidden;points=[[0,0.5],[1,0.5]];portConstraint=eastwest;rotatable=0;whiteSpace=wrap;html=1;rSize=5;fillColor=none;fontColor=#008CFF;fontSize=17;" vertex="1" parent="KRvKpdq1en5eKtD0C2yt-23">
          <mxGeometry y="60" width="150" height="30" as="geometry" />
        </mxCell>
        <mxCell id="KRvKpdq1en5eKtD0C2yt-29" value="" style="shape=mxgraph.mockup.forms.checkbox;resizable=0;fillColor=#AAAAAA;gradientColor=#666666;strokeColor=#444444;html=1;" vertex="1" parent="KRvKpdq1en5eKtD0C2yt-28">
          <mxGeometry y="0.5" width="15" height="15" relative="1" as="geometry">
            <mxPoint x="8" y="-7.5" as="offset" />
          </mxGeometry>
        </mxCell>
        <mxCell id="KRvKpdq1en5eKtD0C2yt-30" value="Eruptions" style="text;strokeColor=none;align=left;verticalAlign=middle;spacingLeft=27;spacingRight=10;overflow=hidden;points=[[0,0.5],[1,0.5]];portConstraint=eastwest;rotatable=0;whiteSpace=wrap;html=1;fillColor=none;fontColor=inherit;fontSize=17;" vertex="1" parent="KRvKpdq1en5eKtD0C2yt-23">
          <mxGeometry y="90" width="150" height="30" as="geometry" />
        </mxCell>
        <mxCell id="KRvKpdq1en5eKtD0C2yt-31" value="" style="resizable=0;fillColor=#EEEEEE;strokeColor=#999999;gradientColor=#cccccc;html=1;" vertex="1" parent="KRvKpdq1en5eKtD0C2yt-30">
          <mxGeometry y="0.5" width="15" height="15" relative="1" as="geometry">
            <mxPoint x="8" y="-7.5" as="offset" />
          </mxGeometry>
        </mxCell>
        <mxCell id="KRvKpdq1en5eKtD0C2yt-32" value="" style="shape=parallelogram;perimeter=parallelogramPerimeter;whiteSpace=wrap;html=1;fixedSize=1;fillColor=#6a00ff;fontColor=#ffffff;strokeColor=#3700CC;opacity=50;" vertex="1" parent="KRvKpdq1en5eKtD0C2yt-17">
          <mxGeometry x="490" y="320" width="130" height="60" as="geometry" />
        </mxCell>
        <mxCell id="KRvKpdq1en5eKtD0C2yt-45" value="" style="shape=image;html=1;verticalAlign=top;verticalLabelPosition=bottom;labelBackgroundColor=#ffffff;imageAspect=0;aspect=fixed;image=https://cdn0.iconfinder.com/data/icons/phosphor-fill-vol-2/256/cursor-fill-128.png" vertex="1" parent="KRvKpdq1en5eKtD0C2yt-17">
          <mxGeometry x="370" y="280" width="38" height="38" as="geometry" />
        </mxCell>
        <mxCell id="KRvKpdq1en5eKtD0C2yt-48" value="&lt;b&gt;Lesser Seattle Fire&lt;/b&gt;&lt;div&gt;Type: Fire&lt;/div&gt;&lt;div&gt;Severity: 2&lt;/div&gt;&lt;div&gt;Start: Jan 24 09:41 AM PST&lt;/div&gt;&lt;div&gt;&lt;u&gt;&lt;font style=&quot;color: rgb(0, 0, 255);&quot;&gt;More Information&lt;/font&gt;&lt;/u&gt;&lt;/div&gt;" style="shape=callout;whiteSpace=wrap;html=1;perimeter=calloutPerimeter;" vertex="1" parent="KRvKpdq1en5eKtD0C2yt-17">
          <mxGeometry x="160" y="140" width="265" height="130" as="geometry" />
        </mxCell>
        <mxCell id="KRvKpdq1en5eKtD0C2yt-50" value="" style="strokeWidth=1;shadow=0;dashed=0;align=center;html=1;shape=mxgraph.mockup.containers.browserWindow;rSize=0;strokeColor=#666666;strokeColor2=#008cff;strokeColor3=#c4c4c4;mainText=,;recursiveResize=0;" vertex="1" parent="1">
          <mxGeometry x="50" y="1170" width="680" height="460" as="geometry" />
        </mxCell>
        <mxCell id="KRvKpdq1en5eKtD0C2yt-51" value="&lt;div&gt;&lt;font style=&quot;font-size: 14px;&quot;&gt;Lesser Seattle Fire&lt;/font&gt;&lt;/div&gt;" style="strokeWidth=1;shadow=0;dashed=0;align=center;html=1;shape=mxgraph.mockup.containers.anchor;fontSize=17;fontColor=#666666;align=left;whiteSpace=wrap;" vertex="1" parent="KRvKpdq1en5eKtD0C2yt-50">
          <mxGeometry x="60" y="12" width="130" height="26" as="geometry" />
        </mxCell>
        <mxCell id="KRvKpdq1en5eKtD0C2yt-52" value="https://www.dissaster-service.com/disaster/1" style="strokeWidth=1;shadow=0;dashed=0;align=center;html=1;shape=mxgraph.mockup.containers.anchor;rSize=0;fontSize=17;fontColor=#666666;align=left;" vertex="1" parent="KRvKpdq1en5eKtD0C2yt-50">
          <mxGeometry x="130" y="60" width="250" height="26" as="geometry" />
        </mxCell>
        <mxCell id="KRvKpdq1en5eKtD0C2yt-53" value="" style="verticalLabelPosition=bottom;shadow=0;dashed=0;align=center;html=1;verticalAlign=top;strokeWidth=1;shape=mxgraph.mockup.misc.map;" vertex="1" parent="KRvKpdq1en5eKtD0C2yt-50">
          <mxGeometry x="10" y="110" width="290" height="200" as="geometry" />
        </mxCell>
        <mxCell id="KRvKpdq1en5eKtD0C2yt-55" value="" style="shape=parallelogram;perimeter=parallelogramPerimeter;whiteSpace=wrap;html=1;fixedSize=1;fillColor=#d80073;fontColor=#ffffff;strokeColor=#A50040;opacity=50;" vertex="1" parent="KRvKpdq1en5eKtD0C2yt-50">
          <mxGeometry x="80" y="170" width="150" height="62.5" as="geometry" />
        </mxCell>
        <mxCell id="KRvKpdq1en5eKtD0C2yt-78" value="&lt;b style=&quot;color: rgb(0, 0, 0); font-size: 12px; text-align: center; text-wrap-mode: wrap;&quot;&gt;Lesser Seattle Fire&lt;/b&gt;&lt;div&gt;&lt;span style=&quot;color: light-dark(rgb(0, 0, 0), rgb(237, 237, 237)); font-size: 12px; text-align: center; text-wrap-mode: wrap; background-color: transparent;&quot;&gt;&lt;b&gt;-&amp;nbsp;&lt;/b&gt;Type: Fire&lt;/span&gt;&lt;/div&gt;&lt;div&gt;&lt;span style=&quot;color: light-dark(rgb(0, 0, 0), rgb(237, 237, 237)); font-size: 12px; text-align: center; text-wrap-mode: wrap; background-color: transparent;&quot;&gt;- Severity: 2&lt;/span&gt;&lt;div style=&quot;color: rgb(0, 0, 0); font-size: 12px; text-align: center; text-wrap-mode: wrap;&quot;&gt;- Start: Jan 24 09:41 AM PST&lt;/div&gt;&lt;/div&gt;&lt;div style=&quot;color: rgb(0, 0, 0); font-size: 12px; text-wrap-mode: wrap;&quot;&gt;- End Date: TBD&lt;/div&gt;&lt;div style=&quot;color: rgb(0, 0, 0); font-size: 12px; text-wrap-mode: wrap;&quot;&gt;- Death Toll: 0 deaths&lt;/div&gt;&lt;div style=&quot;color: rgb(0, 0, 0); font-size: 12px; text-wrap-mode: wrap;&quot;&gt;- Injuries: 12 injuries&lt;/div&gt;&lt;div style=&quot;color: rgb(0, 0, 0); font-size: 12px; text-wrap-mode: wrap;&quot;&gt;- Cost: 1,000.00 USD&lt;/div&gt;" style="strokeWidth=1;shadow=0;dashed=0;align=center;html=1;shape=mxgraph.mockup.text.bulletedList;textColor=#666666;mainText=,,,,;textSize=17;bulletStyle=none;strokeColor=none;fillColor=none;align=left;verticalAlign=top;fontSize=17;fontColor=#666666;" vertex="1" parent="KRvKpdq1en5eKtD0C2yt-50">
          <mxGeometry x="340" y="120" width="320" height="180" as="geometry" />
        </mxCell>
      </root>
    </mxGraphModel>
  </diagram>
</mxfile>
